<svg width="47" height="47" viewBox="0 0 47 47" fill="none" xmlns="http://www.w3.org/2000/svg">
<circle cx="23.7479" cy="23.4094" r="22.8265" fill="#FF267E"/>
<path d="M24.0913 9.48117C25.473 9.48117 26.7457 9.65085 27.9092 9.99022C29.0728 10.3053 30.0787 10.7902 30.9272 11.4447C31.7756 12.0749 32.4301 12.8506 32.8906 13.7717C33.3755 14.6929 33.6179 15.7352 33.6179 16.8988C33.6179 18.2805 33.327 19.6016 32.7452 20.8621C32.1877 22.1226 31.3635 23.3467 30.2727 24.5345C29.2061 25.7223 27.8971 26.8859 26.3457 28.0252C24.7943 29.1402 23.049 30.2553 21.1098 31.3703H33.7269V36.2791H13.474V31.3703C15.2436 30.0856 16.9767 28.8372 18.6736 27.6252C20.3704 26.3889 21.8733 25.189 23.1823 24.0255C24.5155 22.8377 25.5821 21.6863 26.3821 20.5712C27.182 19.4561 27.582 18.3532 27.582 17.2624C27.582 16.1231 27.2184 15.2868 26.4911 14.7535C25.7639 14.1959 24.9034 13.9172 23.9095 13.9172C23.3762 13.9172 22.843 14.0141 22.3097 14.2081C21.8006 14.3778 21.34 14.6686 20.9279 15.0807C20.5401 15.4928 20.225 16.0625 19.9826 16.7897C19.7402 17.4927 19.6432 18.3653 19.6917 19.4077H13.7649C13.7164 17.8563 13.9346 16.4624 14.4194 15.2262C14.9284 13.9899 15.6435 12.9476 16.5647 12.0991C17.4858 11.2507 18.5887 10.6084 19.8735 10.172C21.1582 9.71145 22.5642 9.48117 24.0913 9.48117Z" fill="white"/>
</svg>
