<svg width="47" height="47" viewBox="0 0 47 47" fill="none" xmlns="http://www.w3.org/2000/svg">
<circle cx="23.6356" cy="23.4094" r="22.8265" fill="#FF267E"/>
<path d="M23.9785 32.3157C25.2875 32.3157 26.3178 32.0127 27.0692 31.4067C27.8207 30.7765 28.1964 29.8553 28.1964 28.6433C28.1964 27.4797 27.6752 26.6313 26.6329 26.098C25.5905 25.5405 24.2209 25.2617 22.5241 25.2617H20.7788V20.3167H22.3423C24.0634 20.3167 25.4087 20.0379 26.3784 19.4804C27.3722 18.8986 27.8691 18.0259 27.8691 16.8624C27.8691 16.3776 27.7601 15.9534 27.5419 15.5898C27.3237 15.2262 27.0328 14.9232 26.6692 14.6808C26.3056 14.4141 25.8814 14.2202 25.3966 14.099C24.936 13.9778 24.4634 13.9172 23.9785 13.9172C23.421 13.9172 22.8756 13.9778 22.3423 14.099C21.8333 14.2202 21.3727 14.4262 20.9606 14.7171C20.5485 14.9838 20.197 15.3595 19.9061 15.8443C19.6395 16.3049 19.4577 16.8866 19.3607 17.5896H13.4339C13.5794 16.1352 13.9672 14.8989 14.5975 13.8808C15.252 12.8627 16.0761 12.0264 17.07 11.3719C18.0639 10.7174 19.1789 10.2447 20.4152 9.95386C21.6515 9.63873 22.9362 9.48117 24.2694 9.48117C25.433 9.48117 26.5844 9.61449 27.7237 9.88114C28.8872 10.1478 29.9175 10.5599 30.8144 11.1174C31.7355 11.6749 32.4748 12.39 33.0324 13.2627C33.6141 14.1353 33.905 15.1656 33.905 16.3534C33.905 17.0563 33.7959 17.7108 33.5778 18.3168C33.3839 18.9228 33.1051 19.4804 32.7415 19.9894C32.4021 20.4985 32.0143 20.9591 31.5779 21.3711C31.1416 21.759 30.6932 22.0862 30.2326 22.3529C30.8871 22.6195 31.4689 22.9831 31.9779 23.4437C32.487 23.88 32.9112 24.3891 33.2505 24.9709C33.6141 25.5284 33.8808 26.1223 34.0505 26.7525C34.2444 27.3828 34.3414 28.0009 34.3414 28.6069C34.3414 29.9644 34.0505 31.1522 33.4687 32.1703C32.8869 33.1884 32.1112 34.0368 31.1416 34.7155C30.1962 35.3943 29.0933 35.9033 27.8328 36.2427C26.5723 36.5821 25.2512 36.7517 23.8695 36.7517C22.5605 36.7517 21.2878 36.5942 20.0516 36.2791C18.8396 35.9397 17.7487 35.4185 16.7791 34.7155C15.8095 33.9883 14.9974 33.0793 14.3429 31.9885C13.6884 30.8734 13.2764 29.5523 13.1067 28.0252H19.0698C19.1668 28.8009 19.3728 29.4675 19.688 30.025C20.0031 30.5583 20.3788 30.9946 20.8152 31.334C21.2515 31.6734 21.7363 31.9279 22.2696 32.0976C22.8271 32.243 23.3968 32.3157 23.9785 32.3157Z" fill="white"/>
</svg>
